<svg xmlns="http://www.w3.org/2000/svg">
  <g id='dashboard' fill='none'>
    <g clip-path="url(#clip0_2809_8269)">
      <path d="M12 12V3" stroke="currentColor" stroke-width="2" stroke-linecap="round" stroke-linejoin="round"/>
      <path d="M19.7906 7.5L4.20935 16.5" stroke="currentColor" stroke-width="2" stroke-linecap="round" stroke-linejoin="round"/>
      <path d="M3.14997 13.65C3.04765 13.106 2.99742 12.5535 2.99997 12C2.99878 10.1387 3.57533 8.32287 4.65004 6.80317C5.72475 5.28346 7.24464 4.13477 8.99997 3.51562V10.2656L3.14997 13.65Z" stroke="currentColor" stroke-width="2" stroke-linecap="round" stroke-linejoin="round"/>
      <path d="M12 3C13.577 3.00018 15.1263 3.41474 16.4927 4.20215C17.8591 4.98957 18.9946 6.12219 19.7854 7.48658C20.5763 8.85096 20.9948 10.3992 20.9989 11.9762C21.0031 13.5533 20.5928 15.1037 19.8092 16.4722C19.0255 17.8408 17.896 18.9794 16.5338 19.774C15.1716 20.5686 13.6245 20.9914 12.0475 20.9999C10.4705 21.0084 8.91897 20.6024 7.54827 19.8225C6.17757 19.0426 5.03586 17.9163 4.23749 16.5563" stroke="currentColor" stroke-width="2" stroke-linecap="round" stroke-linejoin="round"  />
      </g>
      <defs>
      <clipPath id="clip0_2809_8269">
      <rect width="24" height="24" fill="white"/>
      </clipPath>
      </defs>
  </g>
  <g id='balances' fill='none'>
    <path d="M3.37685 5.92566L3.375 18.5C3.375 18.8978 3.375 19.625 3.37596 20C3.74874 20 4.47717 20 4.875 20H19.875C20.0739 20 20.625 20 20.625 20C20.625 19.625 20.625 19.4489 20.625 19.25V8.75C20.625 8.55109 20.625 8 20.625 8C20.625 8 20.0739 8 19.875 8H4.875C4.058 8 3.37685 6.87434 3.37685 5.92566ZM3.37685 5.92566C3.37685 4.97698 4.058 4 4.875 4H17.625" stroke="currentColor" stroke-width="2" stroke-linecap="round" stroke-linejoin="round"/>
    <path d="M16.5 15.125C17.1213 15.125 17.625 14.6213 17.625 14C17.625 13.3787 17.1213 12.875 16.5 12.875C15.8787 12.875 15.375 13.3787 15.375 14C15.375 14.6213 15.8787 15.125 16.5 15.125Z" fill="currentColor"/>
  </g>
  <g id='transc' fill='none'>
    <path d="M7.46875 19.1563L7.46875 4.53125M7.46875 4.53125L4.46875 7.53125M7.46875 4.53125L10.4687 7.53125" stroke="currentColor" stroke-width="2" stroke-linecap="round" stroke-linejoin="round"/>
    <path d="M17.1562 4.53125V19.1562M17.1562 19.1562L14.1562 16.1562M17.1562 19.1562L20.1562 16.1562" stroke="currentColor" stroke-width="2" stroke-linecap="round" stroke-linejoin="round" fill='currentColor'/>
  </g>
  <g id='analytics' fill='none'>
    <g clip-path="url(#clip0_2809_8288)">
    <rect x="2.25" y="12.75" width="4.5" height="7.5" stroke="currentColor" stroke-width="2" stroke-linecap="round" stroke-linejoin="round"/>
    <rect x="9.75" y="9" width="4.5" height="11.25" stroke="currentColor" stroke-width="2" stroke-linecap="round" stroke-linejoin="round"/>
    <rect x="17.25" y="3.75" width="4.5" height="16.5" stroke="currentColor" stroke-width="2" stroke-linecap="round" stroke-linejoin="round"/>
    </g>
    <defs>
    <clipPath id="clip0_2809_8288">
    <rect width="24" height="24" fill="white"/>
    </clipPath>
    </defs>
  </g>
  <g id='mkt' fill='none'>
    <path d="M8.22214 8.7627L10.6097 20.1111C10.6365 20.2329 10.6321 20.3594 10.597 20.479C10.5619 20.5986 10.4971 20.7074 10.4088 20.7953L9.5405 21.6773C9.45646 21.7632 9.35304 21.8276 9.23894 21.8651C9.12483 21.9026 9.00338 21.9122 8.88479 21.893C8.76621 21.8739 8.65397 21.8265 8.55752 21.7549C8.46106 21.6833 8.38322 21.5896 8.33053 21.4816L6.09658 16.8741" stroke="currentColor" stroke-width="2" stroke-linecap="round" stroke-linejoin="round"/>
    <path d="M6.09685 16.8735C5.1236 17.0782 4.10886 16.888 3.27588 16.3446C2.4429 15.8012 1.8599 14.9491 1.65514 13.9759C1.45038 13.0026 1.64063 11.9879 2.18403 11.1549C2.72744 10.3219 3.5795 9.73891 4.55275 9.53415L8.22241 8.7621C8.22241 8.7621 13.2223 7.71018 17.1823 2.67134C17.2706 2.56036 17.3885 2.4767 17.5225 2.43006C17.6564 2.38342 17.8008 2.37571 17.939 2.40782C18.0771 2.43994 18.2033 2.51056 18.3029 2.6115C18.4026 2.71245 18.4715 2.83957 18.5018 2.97812L21.5051 17.2531C21.5332 17.3921 21.5213 17.5363 21.4708 17.6688C21.4203 17.8013 21.3332 17.9168 21.2198 18.0019C21.1063 18.0869 20.971 18.138 20.8296 18.1493C20.6882 18.1606 20.5466 18.1316 20.421 18.0656C14.7664 15.0495 9.76652 16.1014 9.76652 16.1014L6.09685 16.8735Z" stroke="currentColor" stroke-width="2" stroke-linecap="round" stroke-linejoin="round"/>
  </g>
  <g id='rate' fill='none'>
    <path d="M4.125 12.75V12.75C4.125 8.40076 7.65076 4.875 12 4.875H19.875M19.875 4.875L17.0956 1.5M19.875 4.875L17.0956 8.25" stroke="currentColor" stroke-width="2" stroke-linecap="round" stroke-linejoin="round"/>
    <path d="M19.875 11.25V11.25C19.875 15.5992 16.3492 19.125 12 19.125H4.125M4.125 19.125L6.90441 22.5M4.125 19.125L6.90441 15.75" stroke="currentColor" stroke-width="2" stroke-linecap="round" stroke-linejoin="round"/>
  </g>
  <g id='checkout' fill='none'>
    <g clip-path="url(#clip0_2809_8310)">
    <path d="M7.5 21.75C8.32843 21.75 9 21.0784 9 20.25C9 19.4216 8.32843 18.75 7.5 18.75C6.67157 18.75 6 19.4216 6 20.25C6 21.0784 6.67157 21.75 7.5 21.75Z" fill="currentColor"/>
    <path d="M17.25 21.75C18.0784 21.75 18.75 21.0784 18.75 20.25C18.75 19.4216 18.0784 18.75 17.25 18.75C16.4216 18.75 15.75 19.4216 15.75 20.25C15.75 21.0784 16.4216 21.75 17.25 21.75Z" fill="currentColor"/>
    <path d="M3.96562 6.75H20.7844L18.3094 15.4125C18.2211 15.7269 18.032 16.0036 17.7711 16.2C17.5103 16.3965 17.1922 16.5019 16.8656 16.5H7.88437C7.55783 16.5019 7.2397 16.3965 6.97886 16.2C6.71803 16.0036 6.52893 15.7269 6.44062 15.4125L3.04688 3.54375C3.00203 3.38696 2.9073 3.24905 2.77704 3.15093C2.64677 3.05282 2.48808 2.99983 2.325 3H0.75" stroke="currentColor" stroke-width="2" stroke-linecap="round" stroke-linejoin="round"/>
    </g>
    <defs>
    <clipPath id="clip0_2809_8310">
    <rect width="24" height="24" fill="white"/>
    </clipPath>
    </defs>
  </g>
  <g id='links' fill='none'>
    <g clip-path="url(#clip0_2809_8317)">
    <path d="M11.4662 6.69381L13.3225 4.83756C14.1084 4.12124 15.1401 3.73529 16.2032 3.7599C17.2663 3.78451 18.279 4.2178 19.0309 4.96972C19.7829 5.72164 20.2161 6.73438 20.2408 7.79747C20.2654 8.86057 19.8794 9.89227 19.1631 10.6782L16.51 13.3219C16.1276 13.7057 15.6732 14.0103 15.1729 14.2181C14.6725 14.4259 14.1361 14.5328 13.5943 14.5328C13.0526 14.5328 12.5161 14.4259 12.0158 14.2181C11.5155 14.0103 11.0611 13.7057 10.6787 13.3219" stroke="currentColor" stroke-width="2" stroke-linecap="round" stroke-linejoin="round"/>
    <path d="M12.5344 17.3048L10.6782 19.1611C9.89228 19.8774 8.86057 20.2634 7.79748 20.2387C6.73438 20.2141 5.72164 19.7808 4.96972 19.0289C4.2178 18.277 3.78451 17.2643 3.7599 16.2012C3.73529 15.1381 4.12124 14.1064 4.83756 13.3205L7.49069 10.6767C7.87306 10.2929 8.32744 9.98837 8.82778 9.78058C9.32811 9.57279 9.86455 9.46582 10.4063 9.46582C10.9481 9.46582 11.4845 9.57279 11.9849 9.78058C12.4852 9.98837 12.9396 10.2929 13.3219 10.6767" stroke="currentColor" stroke-width="2" stroke-linecap="round" stroke-linejoin="round"/>
    </g>
    <defs>
    <clipPath id="clip0_2809_8317">
    <rect width="24" height="24" fill="white"/>
    </clipPath>
    </defs>
  </g>
  <g id='wire' fill='none'>
    <path d="M5 7L19.625 7M19.625 7L16.625 4M19.625 7L16.625 10" stroke="currentColor" stroke-width="2" stroke-linecap="round" stroke-linejoin="round"/>
    <path d="M19.625 16.6875L5 16.6875M5 16.6875L8 13.6875M5 16.6875L8 19.6875" stroke="currentColor" stroke-width="2" stroke-linecap="round" stroke-linejoin="round"/>
  </g>
  <g id='logo' fill='none'>
    <g clip-path="url(#clip0_2809_8337)">
    <path d="M13.2991 23.0089C10.9825 23.0089 8.90312 21.5729 8.06017 19.3914L6.96837 16.569C6.85638 16.3126 6.73741 16.1467 6.61143 16.0696C6.48468 15.9925 6.27937 15.954 5.99554 15.954H5.50952L5.22181 18.34C4.89986 21.0051 2.6626 23.0089 0.00775146 23.0089L2.23723 4.66816C2.56072 2.003 4.79953 0 7.45516 0L5.88978 12.8956H6.20863C6.47224 12.8956 6.68453 12.8547 6.84705 12.7729C7.00881 12.6911 7.17132 12.5425 7.33308 12.327L9.61699 9.16251C10.5533 7.86572 12.0417 7.09502 13.6288 7.08637L16.3 7.07065L11.8924 12.7423C11.6894 13.0089 11.467 13.2448 11.2236 13.4493C10.9802 13.6545 10.7267 13.8338 10.4638 13.9872C10.6769 14.1617 10.8612 14.3639 11.0183 14.5943C11.1754 14.8247 11.3146 15.0889 11.4359 15.3862L14.597 23.0097H13.2991V23.0089Z" fill="#0A0A0A"/>
    <path d="M16.2695 23.0089L18.4741 4.66895C18.7945 2.00378 21.0318 0 23.6865 0L21.482 18.34C21.1609 21.0051 18.9244 23.0089 16.2695 23.0089Z" fill="#0A0A0A"/>
    <path d="M42.8058 19.4587C43.0189 19.6026 43.2716 19.7355 43.5655 19.8582C43.8595 19.9808 44.2445 20.043 44.7203 20.043C45.3892 20.043 45.8851 19.892 46.2094 19.5892C46.5337 19.2872 46.6956 18.931 46.6956 18.5213C46.6956 18.2035 46.6116 17.9425 46.4443 17.7372C46.2772 17.5319 46.057 17.3558 45.7834 17.2072C45.5097 17.0585 45.2009 16.9256 44.8563 16.8077C44.512 16.6905 44.1573 16.5592 43.7926 16.416C43.4279 16.2729 43.0733 16.1062 42.7289 15.9167C42.3843 15.7271 42.0757 15.4889 41.8019 15.2018C41.5282 14.9148 41.308 14.5617 41.1409 14.1409C40.9736 13.721 40.8897 13.2137 40.8897 12.6192C40.8897 11.8816 41.0243 11.1643 41.2925 10.4676C41.5609 9.77083 41.9614 9.15349 42.4931 8.61558C43.0251 8.07769 43.686 7.64515 44.4761 7.31722C45.2662 6.98928 46.1884 6.82571 47.2421 6.82571C48.2958 6.82571 49.2354 7.00973 50.062 7.37935C50.8877 7.74818 51.5689 8.19957 52.1064 8.73197L51.1413 9.97372C50.5766 10.7004 49.5805 10.9182 48.7703 10.492C48.5425 10.374 48.2842 10.2694 47.995 10.1766C47.7066 10.0846 47.3745 10.0382 46.9995 10.0382C46.3005 10.0382 45.8012 10.1743 45.5027 10.4456C45.2032 10.7177 45.054 11.0684 45.054 11.4986C45.054 11.7754 45.1373 12.0113 45.3043 12.2056C45.4716 12.4006 45.6916 12.5744 45.9653 12.7285C46.2391 12.8819 46.5509 13.0234 46.9 13.1508C47.2492 13.279 47.6068 13.4229 47.9718 13.581C48.3364 13.7399 48.6934 13.9215 49.0432 14.1268C49.3924 14.332 49.7042 14.5829 49.978 14.8802C50.2517 15.1774 50.4717 15.5313 50.6389 15.941C50.8062 16.3508 50.8893 16.8376 50.8893 17.4014C50.8893 18.2004 50.7323 18.9561 50.418 19.6686C50.104 20.3811 49.6528 21.0008 49.0658 21.5285C48.4779 22.0562 47.7664 22.4761 46.9304 22.7891C46.0944 23.1014 45.1551 23.2579 44.1114 23.2579C43.6386 23.2579 43.1666 23.2122 42.7031 23.1178C42.1923 23.014 41.7117 22.8717 41.2614 22.6893C40.8306 22.5147 40.438 22.3078 40.0834 22.0664C39.7287 21.8258 39.4402 21.567 39.217 21.2902L40.1012 19.9769C40.7078 19.0773 41.9185 18.8461 42.8058 19.4587Z" fill="#0A0A0A"/>
    <path d="M52.258 23.0089L54.4558 4.73029C54.7801 2.02974 57.046 0 59.7358 0L58.6262 9.16094C59.3456 8.36195 60.1053 7.77291 60.9062 7.39307C61.7063 7.01404 62.5322 6.82451 63.3837 6.82451C63.9709 6.82451 64.5159 6.93224 65.0175 7.14693C65.5192 7.3624 65.9468 7.67697 66.3015 8.0922C66.6561 8.50742 66.9344 9.01702 67.1375 9.62177C67.3404 10.2265 67.4415 10.9233 67.4415 11.7121C67.4415 11.8969 67.4337 12.0864 67.4189 12.2807C67.4043 12.4757 67.3862 12.6754 67.3661 12.8799L66.181 23.0089H61.4692L62.6543 12.8799C62.6746 12.7163 62.6901 12.5645 62.7002 12.4269C62.7102 12.2885 62.7157 12.158 62.7157 12.0353C62.7157 11.4816 62.6194 11.0979 62.4272 10.8824C62.2344 10.6669 61.9459 10.56 61.5609 10.56C61.2469 10.56 60.9171 10.6551 60.5734 10.8446C60.2288 11.0342 59.8967 11.3031 59.5779 11.6515C59.2591 11.9999 58.9597 12.4198 58.6815 12.9121C58.4021 13.4036 58.1721 13.9526 57.99 14.5565L57.5413 18.2802C57.214 20.9792 54.9471 23.0089 52.258 23.0089Z" fill="#0A0A0A"/>
    <path d="M82.0771 23.0083H79.5546C79.2606 23.0083 79.0148 22.9697 78.8174 22.8927C78.6198 22.8156 78.4628 22.711 78.3461 22.5773C78.2295 22.4444 78.1485 22.2855 78.1026 22.1007C78.0567 21.9159 78.0342 21.7162 78.0342 21.5015V20.3643C77.3858 21.2663 76.6664 21.9733 75.8763 22.4853C75.0862 22.998 74.2144 23.2536 73.2618 23.2536C72.6943 23.2536 72.1474 23.138 71.6203 22.9076C71.0931 22.6772 70.6273 22.3288 70.2222 21.8625C69.8169 21.3961 69.4926 20.8016 69.2493 20.0796C69.0058 19.3569 68.8846 18.5044 68.8846 17.5207C68.8846 16.076 69.145 14.7053 69.6676 13.4093C70.1893 12.1133 70.9189 10.9785 71.8558 10.0049C72.7929 9.03131 73.905 8.25826 75.1919 7.68418C76.4781 7.1101 77.892 6.82306 79.4325 6.82306C80.1822 6.82306 80.9419 6.87418 81.7124 6.9764C82.4824 7.07864 83.2421 7.26346 83.9925 7.53005L82.0771 23.0083ZM75.1469 19.4883C75.4913 19.4883 75.8257 19.3577 76.15 19.0966C76.4743 18.8355 76.7808 18.4793 77.0692 18.0287C77.3577 17.5781 77.6236 17.0504 77.8671 16.4456C77.8694 16.4393 77.8717 16.4338 77.8739 16.4275C78.2574 15.4713 78.4961 14.4623 78.623 13.4384L79.0374 10.0985H78.7635C77.9938 10.0985 77.2915 10.2731 76.6587 10.6214C76.0256 10.9698 75.4804 11.444 75.0248 12.0433C74.5691 12.6425 74.2167 13.3393 73.9686 14.1336C73.7206 14.9278 73.5962 15.7756 73.5962 16.6776C73.5962 17.1904 73.6366 17.6253 73.7176 17.9838C73.7984 18.3425 73.9072 18.6318 74.0442 18.852C74.1811 19.0722 74.3427 19.2335 74.5303 19.3365C74.7193 19.4371 74.9237 19.4883 75.1469 19.4883Z" fill="#0A0A0A"/>
    <path d="M37.1529 23.0083H34.6304C34.3365 23.0083 34.0907 22.9697 33.8931 22.8927C33.6956 22.8156 33.5386 22.711 33.422 22.5773C33.3052 22.4444 33.2244 22.2855 33.1785 22.1007C33.1326 21.9159 33.11 21.7162 33.11 21.5015V20.3643C32.4614 21.2663 31.7423 21.9733 30.9522 22.4853C30.1621 22.998 29.2903 23.2536 28.3377 23.2536C27.7702 23.2536 27.2234 23.138 26.6962 22.9076C26.169 22.6772 25.7032 22.3288 25.2979 21.8625C24.8928 21.3961 24.5685 20.8016 24.3252 20.0796C24.0817 19.3577 23.9605 18.5044 23.9605 17.5207C23.9605 16.076 24.2209 14.7053 24.7435 13.4093C25.2652 12.1133 25.9946 10.9785 26.9317 10.0049C27.8688 9.03131 28.9809 8.25826 30.2678 7.68418C31.554 7.1101 32.9679 6.82306 34.5083 6.82306C35.2578 6.82306 36.0178 6.87418 36.7882 6.9764C37.5583 7.07864 38.318 7.26346 39.0684 7.53005L37.1529 23.0083ZM30.2219 19.4883C30.5665 19.4883 30.9009 19.3577 31.2252 19.0966C31.5495 18.8355 31.8557 18.4793 32.1442 18.0287C32.4327 17.5781 32.6988 17.0504 32.9421 16.4456C32.9443 16.4393 32.9469 16.4338 32.9491 16.4275C33.3325 15.4713 33.5713 14.4623 33.6979 13.4384L34.1124 10.0985H33.8387C33.069 10.0985 32.3667 10.2731 31.7336 10.6214C31.1006 10.9698 30.5556 11.444 30.0998 12.0433C29.6441 12.6425 29.2919 13.3393 29.0439 14.1336C28.7958 14.9278 28.6714 15.7756 28.6714 16.6776C28.6714 17.1904 28.7118 17.6253 28.7926 17.9838C28.8736 18.3425 28.9825 18.6318 29.1192 18.852C29.2561 19.0722 29.4179 19.2335 29.6053 19.3365C29.7942 19.4371 29.9987 19.4883 30.2219 19.4883Z" fill="#0A0A0A"/>
    </g>
    <defs>
    <clipPath id="clip0_2809_8337">
    <rect width="83.9846" height="23.3103" fill="white" transform="translate(0.0078125)"/>
    </clipPath>
    </defs>
  </g>
  <g id='btn'>
    <path d="M5.99921 11.9984L0.999207 6.99844L5.99921 1.99844" stroke="#0A0A0A" stroke-width="2" stroke-linecap="round" stroke-linejoin="round"/>
  </g>
  <g id='user' fill='none'>
    <path d="M28.8434 15.9995C28.8434 23.0803 22.8319 28.8435 15.9995 28.8435C9.16708 28.8435 3.15552 23.0803 3.15552 15.9995C3.15552 8.90598 8.90595 3.15555 15.9995 3.15555C23.093 3.15555 28.8434 8.90598 28.8434 15.9995Z" stroke="#0A0A0A" stroke-width="2"/>
    <circle cx="15.9991" cy="10.8089" r="3.32624" stroke="#0A0A0A" stroke-width="2"/>
    <path d="M22.7872 20.7606C22.7872 21.2529 22.362 21.9679 21.0591 22.6193C19.816 23.2409 18.0287 23.6542 15.9999 23.6542C13.9711 23.6542 12.1838 23.2409 10.9407 22.6193C9.63784 21.9679 9.21271 21.2529 9.21271 20.7606C9.21271 20.2847 9.26521 19.9215 9.38689 19.6282C9.49973 19.3562 9.69298 19.093 10.0733 18.8467C10.9008 18.3107 12.5908 17.8669 15.9999 17.8669C19.409 17.8669 21.0991 18.3107 21.9266 18.8467C22.3069 19.093 22.5001 19.3562 22.613 19.6282C22.7347 19.9215 22.7872 20.2847 22.7872 20.7606Z" stroke="#0A0A0A" stroke-width="2"/>
    <path d="M42 14L48 20L54 14" stroke="#0A0A0A" stroke-width="2" stroke-linecap="round" stroke-linejoin="round"/>
  </g>
  <g id='acc'>
    <path d="M6 10L12 16L18 10" stroke="#0A0A0A" stroke-width="2" stroke-linecap="round" stroke-linejoin="round"/>
  </g>
</svg>
