<svg width="210" height="78" viewBox="0 0 210 78" fill="none" xmlns="http://www.w3.org/2000/svg">
<g clip-path="url(#clip0_2_3733)">
<path d="M19.6872 37.3125H6.93592L1 32.313V77.7798C70.0692 77.946 208.318 78.1786 208.757 77.7798C209.197 77.3809 208.94 50.6354 208.757 37.3125H206.559L193.368 9.94656L168.745 6.78895L156.433 40.4701L145.001 9.94656L130.931 27.3134L119.499 1L93.5564 9.94656L83.0036 3.10507L57.9409 72.0462H44.7499L19.6872 37.3125Z" fill="url(#paint0_linear_2_3733)"/>
<path d="M1 32.2926L6.94286 37.2889H19.709L44.8011 72H58.0074L83.0995 3.1037L93.6646 9.94074L119.637 1L131.083 27.2963L145.169 9.94074L156.615 40.4444L168.941 6.78519L193.593 9.94074L206.799 37.2889H209" stroke="#EF2C5A" stroke-linecap="round"/>
</g>
<defs>
<linearGradient id="paint0_linear_2_3733" x1="105" y1="-615.731" x2="105" y2="78" gradientUnits="userSpaceOnUse">
<stop stop-color="#EF2C5A"/>
<stop offset="1" stop-color="#EF2C5A" stop-opacity="0"/>
</linearGradient>
<clipPath id="clip0_2_3733">
<rect width="210" height="78" fill="white"/>
</clipPath>
</defs>
</svg>
