<svg width="201" height="69" viewBox="0 0 201 69" fill="none" xmlns="http://www.w3.org/2000/svg">
<path d="M11.8083 32.7391L1 1V69H200V1L189.192 21L175.84 17.9565L163.125 41.8696L148.502 44.0435L135.786 41.8696L119.891 51L95.0958 17.9565L79.8371 24.913L67.7572 44.0435L53.77 2.73913L38.5112 11.4348L26.4313 38.3913L11.8083 32.7391Z" fill="url(#paint0_linear_2_3725)"/>
<path d="M1 1L11.8083 32.7391L26.4313 38.3913L38.5112 11.4348L53.77 2.73913L67.7572 44.0435L79.8371 24.913L95.0958 17.9565L119.891 51L135.786 41.8696L148.502 44.0435L163.125 41.8696L175.84 17.9565L189.192 21L200 1" stroke="#EF2C5A" stroke-linecap="round"/>
<defs>
<linearGradient id="paint0_linear_2_3725" x1="100.5" y1="-103.5" x2="100.5" y2="69" gradientUnits="userSpaceOnUse">
<stop stop-color="#EF2C5A"/>
<stop offset="1" stop-color="#EF2C5A" stop-opacity="0"/>
</linearGradient>
</defs>
</svg>
